<svg width="360" height="201" viewBox="0 0 360 201" fill="none" xmlns="http://www.w3.org/2000/svg">
<path d="M0 8C0 3.58172 3.58172 0 8 0H352C356.418 0 360 3.58172 360 8V201H0V8Z" fill="#1E3932"/>
<g opacity="0.6">
<path fill-rule="evenodd" clip-rule="evenodd" d="M183.35 68.843H127.845H125.306L125.938 64.8912L126.03 64.6824C126.281 64.0778 127.048 62.2366 127.242 61.9728L132.647 61.9673C132.657 61.9673 132.662 61.9728 132.671 61.9728C132.686 61.9728 132.705 61.9673 132.72 61.9673L184.238 61.8903C184.267 61.9123 184.928 62.418 185.802 65.3035L186.111 68.843H183.35ZM176.11 149.226C176.11 150.265 174.913 151.287 173.697 151.287H137.498C136.282 151.287 135.085 150.265 135.08 149.034L130.437 74.3404H180.758L176.11 149.226ZM190.58 64.4465C190.561 64.2486 190.522 64.0452 190.464 63.8529C189.933 62.0281 188.307 56.477 184.556 56.477H149.892L171.153 49.5517C172.085 49.3484 173.045 49.5737 173.663 50.1508C174.092 50.552 174.3 51.0467 174.3 51.6678C174.3 53.1847 175.381 54.4159 176.713 54.4159C178.045 54.4159 179.127 53.1847 179.127 51.6678C179.127 49.3923 178.272 47.3478 176.723 45.9023C174.985 44.2809 172.548 43.6213 170.019 44.2149L132.328 56.477H127.241C124.113 56.477 122.521 60.2748 121.464 62.8031C121.362 63.0394 121.29 63.2868 121.247 63.5451L120.04 71.1024C119.91 71.9048 120.103 72.7293 120.561 73.3503C121.02 73.9769 121.7 74.3396 122.415 74.3396H125.595L130.258 149.225C130.258 153.32 133.574 156.783 137.498 156.783H173.697C177.621 156.783 180.936 153.32 180.932 149.418L185.599 74.3396H188.78C189.46 74.3396 190.112 74.0099 190.57 73.4328C191.024 72.8612 191.251 72.0917 191.183 71.3167L190.58 64.4465ZM156.201 94.9505C161.524 94.9505 165.854 99.8806 165.854 105.943C165.854 112.005 161.524 116.935 156.201 116.935C150.877 116.935 146.548 112.005 146.548 105.943C146.548 99.8806 150.877 94.9505 156.201 94.9505V94.9505ZM156.201 122.431C164.184 122.431 170.68 115.033 170.68 105.942C170.68 96.8511 164.184 89.4532 156.201 89.4532C148.218 89.4532 141.721 96.8511 141.721 105.942C141.721 115.033 148.218 122.431 156.201 122.431V122.431Z" fill="#EDEBE9"/>
<path d="M125.306 68.843L124.664 68.7403L124.544 69.493H125.306V68.843ZM125.938 64.8912L125.343 64.6299L125.31 64.7062L125.297 64.7886L125.938 64.8912ZM126.03 64.6824L126.625 64.9438L126.63 64.9316L126.03 64.6824ZM127.242 61.9728L127.241 61.3228L126.912 61.3231L126.717 61.5889L127.242 61.9728ZM132.647 61.9673V61.3173H132.647L132.647 61.9673ZM132.72 61.9673V62.6173L132.721 62.6173L132.72 61.9673ZM184.238 61.8903L184.631 61.3726L184.457 61.24L184.237 61.2403L184.238 61.8903ZM185.802 65.3035L186.45 65.247L186.444 65.1797L186.424 65.1151L185.802 65.3035ZM186.111 68.843V69.493H186.82L186.759 68.7865L186.111 68.843ZM176.11 149.226L175.462 149.186L175.46 149.206V149.226H176.11ZM135.08 149.034L135.73 149.031L135.73 149.012L135.729 148.994L135.08 149.034ZM130.437 74.3404V73.6904H129.745L129.788 74.3807L130.437 74.3404ZM180.758 74.3404L181.407 74.3807L181.45 73.6904H180.758V74.3404ZM190.58 64.4465L191.227 64.3896L191.227 64.3833L190.58 64.4465ZM190.464 63.8529L189.84 64.0345L189.842 64.0403L190.464 63.8529ZM149.892 56.477L149.691 55.8589L149.892 57.127V56.477ZM171.153 49.5517L171.014 48.9167L170.983 48.9236L170.952 48.9337L171.153 49.5517ZM173.663 50.1508L173.219 50.6258L173.219 50.6258L173.663 50.1508ZM176.723 45.9023L176.279 46.3775L176.279 46.3775L176.723 45.9023ZM170.019 44.2149L169.87 43.5821L169.844 43.5884L169.818 43.5968L170.019 44.2149ZM132.328 56.477V57.127H132.431L132.529 57.0951L132.328 56.477ZM121.464 62.8031L122.061 63.0593L122.063 63.0538L121.464 62.8031ZM121.247 63.5451L120.605 63.4373L120.605 63.4426L121.247 63.5451ZM120.04 71.1024L120.681 71.2066L120.682 71.2049L120.04 71.1024ZM120.561 73.3503L121.086 72.9665L121.084 72.9643L120.561 73.3503ZM125.595 74.3396L126.244 74.2993L126.206 73.6896H125.595V74.3396ZM130.258 149.225H130.908V149.205L130.906 149.185L130.258 149.225ZM180.932 149.418L180.283 149.378L180.282 149.398L180.282 149.419L180.932 149.418ZM185.599 74.3396V73.6896H184.988L184.95 74.2993L185.599 74.3396ZM190.57 73.4328L191.079 73.8371L191.079 73.8369L190.57 73.4328ZM191.183 71.3167L191.831 71.2603L191.831 71.2599L191.183 71.3167ZM183.35 68.193H127.845V69.493H183.35V68.193ZM127.845 68.193H125.306V69.493H127.845V68.193ZM125.948 68.9457L126.58 64.9939L125.297 64.7886L124.664 68.7403L125.948 68.9457ZM126.534 65.1526L126.625 64.9437L125.435 64.4211L125.343 64.6299L126.534 65.1526ZM126.63 64.9316C126.756 64.6296 127.009 64.0225 127.254 63.459C127.376 63.1768 127.495 62.9097 127.594 62.6989C127.644 62.5933 127.687 62.5061 127.721 62.4402C127.761 62.364 127.774 62.3458 127.766 62.3566L126.717 61.5889C126.624 61.7163 126.512 61.9456 126.418 62.1459C126.311 62.3735 126.186 62.6539 126.061 62.9406C125.812 63.5148 125.555 64.1306 125.43 64.4332L126.63 64.9316ZM127.242 62.6228L132.648 62.6173L132.647 61.3173L127.241 61.3228L127.242 62.6228ZM132.647 62.6173C132.617 62.6173 132.588 62.6151 132.561 62.6112C132.533 62.6074 132.509 62.6021 132.489 62.5968C132.469 62.5915 132.453 62.5863 132.443 62.5828C132.438 62.581 132.434 62.5796 132.432 62.5788C132.43 62.578 132.428 62.5774 132.429 62.5777C132.429 62.5777 132.431 62.5787 132.434 62.5798C132.437 62.581 132.442 62.5827 132.448 62.5848C132.46 62.5889 132.478 62.5948 132.5 62.6006C132.522 62.6064 132.548 62.6121 132.578 62.6163C132.608 62.6204 132.639 62.6228 132.671 62.6228V61.3228C132.701 61.3228 132.73 61.3249 132.758 61.3288C132.786 61.3326 132.81 61.3379 132.83 61.3432C132.85 61.3485 132.866 61.3538 132.876 61.3572C132.881 61.359 132.885 61.3604 132.887 61.3613C132.889 61.362 132.891 61.3626 132.89 61.3623C132.89 61.3623 132.887 61.3613 132.884 61.3602C132.881 61.3591 132.876 61.3573 132.871 61.3552C132.859 61.3511 132.841 61.3452 132.819 61.3395C132.797 61.3336 132.77 61.3279 132.741 61.3238C132.711 61.3196 132.68 61.3173 132.647 61.3173V62.6173ZM132.671 62.6228C132.693 62.6228 132.712 62.6217 132.727 62.6206C132.742 62.6194 132.755 62.618 132.765 62.6168C132.774 62.6155 132.783 62.6143 132.788 62.6135C132.793 62.6126 132.798 62.6118 132.8 62.6116C132.803 62.6112 132.802 62.6113 132.801 62.6114C132.799 62.6116 132.795 62.6123 132.79 62.613C132.784 62.6137 132.775 62.6147 132.764 62.6156C132.753 62.6164 132.738 62.6173 132.72 62.6173V61.3173C132.698 61.3173 132.679 61.3183 132.664 61.3194C132.649 61.3206 132.636 61.322 132.626 61.3233C132.617 61.3245 132.609 61.3257 132.603 61.3266C132.598 61.3274 132.593 61.3282 132.591 61.3284C132.589 61.3289 132.589 61.3288 132.59 61.3286C132.592 61.3284 132.596 61.3278 132.601 61.327C132.607 61.3263 132.616 61.3253 132.627 61.3245C132.638 61.3236 132.653 61.3228 132.671 61.3228V62.6228ZM132.721 62.6173L184.239 62.5403L184.237 61.2403L132.719 61.3173L132.721 62.6173ZM183.845 62.408C183.845 62.408 183.845 62.408 183.845 62.4078C183.845 62.4077 183.845 62.4076 183.844 62.4074C183.844 62.407 183.843 62.4066 183.843 62.4061C183.841 62.405 183.84 62.4039 183.839 62.4028C183.836 62.4006 183.833 62.3986 183.832 62.3971C183.828 62.394 183.827 62.393 183.829 62.3948C183.832 62.3983 183.847 62.413 183.873 62.4434C183.924 62.5045 184.015 62.627 184.138 62.844C184.386 63.2798 184.752 64.0796 185.18 65.4918L186.424 65.1151C185.538 62.1891 184.826 61.5206 184.631 61.3726L183.845 62.408ZM185.155 65.36L185.463 68.8995L186.759 68.7865L186.45 65.247L185.155 65.36ZM186.111 68.193H183.35V69.493H186.111V68.193ZM175.46 149.226C175.46 149.498 175.295 149.847 174.938 150.152C174.587 150.451 174.13 150.637 173.697 150.637V151.937C174.481 151.937 175.23 151.612 175.782 151.141C176.327 150.675 176.76 149.993 176.76 149.226H175.46ZM173.697 150.637H137.498V151.937H173.697V150.637ZM137.498 150.637C137.067 150.637 136.616 150.453 136.271 150.141C135.928 149.829 135.731 149.431 135.73 149.031L134.43 149.036C134.433 149.868 134.838 150.596 135.398 151.104C135.957 151.61 136.712 151.937 137.498 151.937V150.637ZM135.729 148.994L131.086 74.3001L129.788 74.3807L134.431 149.074L135.729 148.994ZM130.437 74.9904H180.758V73.6904H130.437V74.9904ZM180.11 74.3001L175.462 149.186L176.759 149.267L181.407 74.3807L180.11 74.3001ZM191.227 64.3833C191.204 64.1464 191.157 63.9012 191.086 63.6655L189.842 64.0403C189.887 64.1893 189.918 64.3508 189.933 64.5096L191.227 64.3833ZM191.088 63.6713C190.824 62.762 190.266 60.8464 189.279 59.1533C188.307 57.4855 186.794 55.827 184.556 55.827V57.127C186.069 57.127 187.244 58.244 188.156 59.8079C189.053 61.3466 189.574 63.119 189.84 64.0345L191.088 63.6713ZM184.556 55.827H149.892V57.127H184.556V55.827ZM150.093 57.095L171.354 50.1698L170.952 48.9337L149.691 55.8589L150.093 57.095ZM171.292 50.1868C172.049 50.0214 172.782 50.2171 173.219 50.6258L174.107 49.6758C173.309 48.9304 172.12 48.6753 171.014 48.9167L171.292 50.1868ZM173.219 50.6258C173.509 50.8964 173.65 51.2151 173.65 51.6678H174.95C174.95 50.8783 174.676 50.2077 174.107 49.6758L173.219 50.6258ZM173.65 51.6678C173.65 53.4618 174.945 55.0659 176.713 55.0659V53.7659C175.817 53.7659 174.95 52.9077 174.95 51.6678H173.65ZM176.713 55.0659C178.481 55.0659 179.777 53.4618 179.777 51.6678H178.477C178.477 52.9077 177.61 53.7659 176.713 53.7659V55.0659ZM179.777 51.6678C179.777 49.2264 178.857 47.0048 177.166 45.427L176.279 46.3775C177.687 47.6907 178.477 49.5583 178.477 51.6678H179.777ZM177.166 45.427C175.264 43.6517 172.602 42.9409 169.87 43.5821L170.167 44.8477C172.494 44.3017 174.707 44.91 176.279 46.3775L177.166 45.427ZM169.818 43.5968L132.127 55.8589L132.529 57.0951L170.22 44.833L169.818 43.5968ZM132.328 55.827H127.241V57.127H132.328V55.827ZM127.241 55.827C125.376 55.827 124.026 56.9694 123.05 58.3094C122.077 59.6469 121.387 61.3011 120.864 62.5524L122.063 63.0538C122.597 61.7768 123.233 60.2679 124.101 59.0745C124.968 57.8835 125.979 57.127 127.241 57.127V55.827ZM120.866 62.5469C120.744 62.8317 120.657 63.1289 120.606 63.4373L121.888 63.6529C121.923 63.4446 121.981 63.2472 122.061 63.0593L120.866 62.5469ZM120.605 63.4426L119.398 70.9999L120.682 71.2049L121.888 63.6476L120.605 63.4426ZM119.398 70.9982C119.241 71.9649 119.471 72.9678 120.038 73.7364L121.084 72.9643C120.734 72.4907 120.578 71.8448 120.681 71.2066L119.398 70.9982ZM120.037 73.7342C120.605 74.5115 121.473 74.9896 122.415 74.9896V73.6896C121.927 73.6896 121.434 73.4423 121.086 72.9665L120.037 73.7342ZM122.415 74.9896H125.595V73.6896H122.415V74.9896ZM124.946 74.38L129.609 149.266L130.906 149.185L126.244 74.2993L124.946 74.38ZM129.608 149.225C129.608 153.653 133.188 157.433 137.498 157.433V156.133C133.959 156.133 130.908 152.988 130.908 149.225H129.608ZM137.498 157.433H173.697V156.133H137.498V157.433ZM173.697 157.433C177.995 157.433 181.587 153.663 181.582 149.417L180.282 149.419C180.286 152.977 177.246 156.133 173.697 156.133V157.433ZM181.58 149.458L186.248 74.38L184.95 74.2993L180.283 149.378L181.58 149.458ZM185.599 74.9896H188.78V73.6896H185.599V74.9896ZM188.78 74.9896C189.676 74.9896 190.509 74.5548 191.079 73.8371L190.061 73.0284C189.715 73.4649 189.244 73.6896 188.78 73.6896V74.9896ZM191.079 73.8369C191.641 73.1288 191.912 72.1926 191.831 71.2603L190.536 71.3732C190.59 71.9908 190.407 72.5936 190.061 73.0287L191.079 73.8369ZM191.831 71.2599L191.227 64.3896L189.932 64.5033L190.536 71.3736L191.831 71.2599ZM156.201 95.6005C161.089 95.6005 165.204 100.158 165.204 105.943H166.504C166.504 99.6035 161.96 94.3005 156.201 94.3005V95.6005ZM165.204 105.943C165.204 111.728 161.089 116.285 156.201 116.285V117.585C161.96 117.585 166.504 112.282 166.504 105.943H165.204ZM156.201 116.285C151.313 116.285 147.198 111.728 147.198 105.943H145.898C145.898 112.282 150.441 117.585 156.201 117.585V116.285ZM147.198 105.943C147.198 100.158 151.313 95.6005 156.201 95.6005V94.3005C150.441 94.3005 145.898 99.6035 145.898 105.943H147.198ZM156.201 123.08C164.62 123.08 171.33 115.31 171.33 105.942H170.03C170.03 114.756 163.748 121.781 156.201 121.781V123.08ZM171.33 105.942C171.33 96.5741 164.62 88.8032 156.201 88.8032V90.1032C163.748 90.1032 170.03 97.1282 170.03 105.942H171.33ZM156.201 88.8032C147.782 88.8032 141.071 96.5741 141.071 105.942H142.371C142.371 97.1282 148.653 90.1032 156.201 90.1032V88.8032ZM141.071 105.942C141.071 115.31 147.782 123.08 156.201 123.08V121.781C148.653 121.781 142.371 114.756 142.371 105.942H141.071Z" fill="#1E3932"/>
</g>
<g opacity="0.8">
<path d="M155.626 122.842C166.295 122.842 174.945 113.738 174.945 102.507C174.945 91.2769 166.295 82.1729 155.626 82.1729C144.956 82.1729 136.306 91.2769 136.306 102.507C136.306 113.738 144.956 122.842 155.626 122.842Z" fill="#1E3932"/>
<path d="M152.657 115.529C152.657 113.33 150.22 111.673 150.22 109.602C150.22 107.532 152.492 106.81 152.492 104.286C152.492 102.145 150.801 100.351 150.801 98.1435C150.801 96.3477 151.289 95.1352 152.204 93.9351C152.29 93.8226 152.191 93.708 152.068 93.8027C152.041 93.8238 152.014 93.8458 151.986 93.8677C150.695 94.9162 149.811 96.6086 149.811 98.4893C149.811 100.903 151.284 102.113 151.284 104.298C151.284 106.483 148.884 107.474 148.884 109.602C148.884 111.732 151.244 113.428 151.244 115.402C151.244 117.207 148.99 119.488 149.241 121.7C149.735 121.881 150.236 122.045 150.747 122.184C150.352 119.83 152.657 117.568 152.657 115.529Z" fill="white"/>
<path d="M147.662 109.602C147.662 107.627 150.105 106.448 150.105 104.329C150.105 102.21 148.892 101.008 148.892 98.8444C148.892 96.9183 149.535 95.6477 150.646 94.248C150.399 94.3826 150.194 94.5366 149.985 94.7293C148.808 95.8194 148.045 97.5264 148.045 99.2121C148.045 101.513 149.106 102.546 149.106 104.342C149.106 106.138 146.615 107.556 146.615 109.602C146.615 111.647 148.775 113.387 148.775 115.119C148.775 116.672 146.919 118.737 146.853 120.627C147.197 120.811 147.545 120.986 147.901 121.149C147.933 118.96 149.936 117.116 149.936 115.272C149.936 113.243 147.662 111.577 147.662 109.602Z" fill="white"/>
<path d="M147.112 113.575C147.834 115.967 145.159 117.38 144.916 119.44C145.185 119.628 145.459 119.808 145.737 119.982C145.878 118.262 147.632 116.89 147.632 115.159C147.632 114.525 147.349 113.997 147.112 113.575Z" fill="white"/>
<path d="M164.097 113.575C163.861 113.997 163.578 114.525 163.578 115.159C163.578 116.89 165.33 118.263 165.472 119.983C165.751 119.809 166.025 119.628 166.294 119.44C166.051 117.38 163.375 115.967 164.097 113.575Z" fill="white"/>
<mask id="mask0_12809_46379" style="mask-type:alpha" maskUnits="userSpaceOnUse" x="151" y="104" width="9" height="19">
<path d="M151.46 122.831H159.751V104.683H151.46V122.831Z" fill="white"/>
</mask>
<g mask="url(#mask0_12809_46379)">
<path d="M159.751 109.6C159.751 107.689 157.94 107.063 157.703 105.105C157.67 104.839 157.466 104.641 157.185 104.69C156.817 104.761 156.346 105.015 155.606 105.015C154.866 105.015 154.394 104.761 154.025 104.69C153.746 104.641 153.541 104.839 153.508 105.105C153.271 107.063 151.46 107.689 151.46 109.6C151.46 111.629 153.981 113.478 153.981 115.555C153.981 117.47 151.724 119.574 152.152 122.501C153.273 122.713 154.426 122.831 155.606 122.831C156.785 122.831 157.937 122.713 159.058 122.501C159.486 119.574 157.229 117.47 157.229 115.555C157.229 113.478 159.751 111.629 159.751 109.6Z" fill="white"/>
</g>
<path d="M142.845 117.767C143.06 117.966 143.279 118.16 143.502 118.349C143.712 117.967 144.034 117.502 144.399 117.242C144.229 117.027 144.063 116.807 143.905 116.581C143.475 116.855 143.093 117.366 142.845 117.767Z" fill="white"/>
<path d="M162.326 109.602C162.326 107.474 159.926 106.483 159.926 104.298C159.926 102.113 161.4 100.903 161.4 98.4893C161.4 96.6085 160.515 94.9161 159.223 93.8678C159.196 93.8457 159.17 93.8237 159.141 93.8027C159.02 93.7081 158.92 93.8225 159.006 93.935C159.92 95.1352 160.408 96.3476 160.408 98.1434C160.408 100.351 158.717 102.145 158.717 104.286C158.717 106.81 160.989 107.532 160.989 109.602C160.989 111.673 158.553 113.329 158.553 115.529C158.553 117.568 160.858 119.83 160.463 122.184C160.974 122.045 161.474 121.881 161.968 121.7C162.22 119.488 159.965 117.207 159.965 115.402C159.965 113.427 162.326 111.732 162.326 109.602Z" fill="white"/>
<path d="M164.596 109.602C164.596 107.556 162.105 106.138 162.105 104.342C162.105 102.546 163.163 101.513 163.163 99.2121C163.163 97.5264 162.402 95.8194 161.224 94.7293C161.016 94.5366 160.811 94.3826 160.564 94.248C161.675 95.6477 162.318 96.9183 162.318 98.8444C162.318 101.008 161.105 102.21 161.105 104.329C161.105 106.448 163.549 107.627 163.549 109.602C163.549 111.577 161.272 113.243 161.272 115.272C161.272 117.116 163.276 118.96 163.309 121.149C163.664 120.986 164.013 120.811 164.357 120.627C164.291 118.737 162.436 116.672 162.436 115.119C162.436 113.387 164.596 111.647 164.596 109.602Z" fill="white"/>
<path d="M141.648 103.525C139.411 103.423 138.627 105.467 136.447 105.091C136.507 105.599 136.581 106.103 136.677 106.599C138.73 106.866 139.475 105.051 141.322 105.052C141.405 104.534 141.514 104.024 141.648 103.525Z" fill="white"/>
<path d="M142.698 114.524C141.958 114.729 141.453 115.463 141.077 115.903C141.282 116.149 141.492 116.389 141.708 116.624C142.047 116.181 142.482 115.506 143.119 115.325C142.971 115.063 142.83 114.796 142.698 114.524Z" fill="white"/>
<path d="M142.126 102.021C142.344 101.439 142.598 100.877 142.883 100.336C139.984 99.8012 138.998 102.345 136.303 101.958C136.298 102.151 136.289 102.342 136.289 102.536C136.289 102.909 136.3 103.28 136.319 103.648C138.86 103.947 139.812 101.752 142.126 102.021Z" fill="white"/>
<path d="M141.118 107.609C141.118 107.323 141.126 107.039 141.141 106.757C139.263 106.711 138.69 108.404 137.068 108.239C137.191 108.681 137.323 109.119 137.474 109.548C139.001 109.621 139.522 108.064 141.125 108.084C141.12 107.926 141.118 107.769 141.118 107.609Z" fill="white"/>
<mask id="mask1_12809_46379" style="mask-type:alpha" maskUnits="userSpaceOnUse" x="168" y="100" width="7" height="4">
<path d="M174.92 103.678V100.264H168.326V103.678H174.92Z" fill="white"/>
</mask>
<g mask="url(#mask1_12809_46379)">
<path d="M174.907 101.96C172.21 102.347 171.224 99.8031 168.326 100.338C168.611 100.879 168.865 101.441 169.083 102.023C171.397 101.754 172.349 103.949 174.89 103.65C174.909 103.282 174.921 102.911 174.921 102.538C174.921 102.344 174.912 102.153 174.907 101.96Z" fill="white"/>
</g>
<path d="M142.413 113.905C142.523 114.158 142.688 114.255 142.993 114.255C143.936 114.255 145.397 113.613 146.518 112.436C145.788 111.04 145.567 110.33 145.567 109.601C145.567 107.752 148.065 106.198 148.065 104.404C148.065 102.61 147.204 101.583 147.204 99.6386C147.204 97.8867 147.957 96.3738 148.939 95.0986C148.696 95.2583 148.484 95.4378 148.277 95.6581C147.208 96.7944 146.5 98.456 146.5 99.9888C146.5 102.053 147.237 102.901 147.237 104.432C147.237 105.843 144.394 107.803 144.715 109.729C143.723 110.679 142.538 111.103 141.503 111.103C141.593 111.504 141.697 111.897 141.817 112.284C140.65 112.349 140.116 113.393 139.501 113.74C139.695 114.047 139.895 114.349 140.103 114.643C140.666 114.255 141.13 113.286 142.145 113.245C142.23 113.467 142.319 113.687 142.413 113.905Z" fill="white"/>
<path d="M141.448 110.849C141.372 110.479 141.308 110.103 141.258 109.724C139.589 109.607 139.209 111.083 138.114 111.149C138.282 111.525 138.458 111.895 138.647 112.258C139.685 112.145 139.997 110.742 141.448 110.849Z" fill="white"/>
<path d="M152.188 97.2709C152.564 96.8751 153.357 96.8916 154.18 97.2114C154.215 96.7802 153.483 96.3105 152.75 96.3105C152.218 96.3105 151.954 96.4991 151.954 96.7724C151.954 96.9489 152.01 97.1023 152.188 97.2709Z" fill="white"/>
<path d="M158.459 96.3105C158.03 96.3105 157.526 96.4496 157.208 96.8211C157.174 96.9215 157.174 97.0714 157.222 97.1728C158.001 96.8916 158.69 96.8806 159.021 97.2709C159.198 97.1023 159.255 96.9491 159.255 96.7726C159.255 96.4991 158.992 96.3105 158.459 96.3105Z" fill="white"/>
<path d="M156.565 99.962C156.56 100.021 156.539 100.074 156.499 100.122C156.156 100.177 156.001 100.377 155.605 100.377C155.208 100.377 155.054 100.177 154.71 100.122C154.67 100.074 154.649 100.021 154.645 99.962C154.709 99.8442 155.005 99.7176 155.159 99.7165C155.318 99.7153 155.37 99.8088 155.605 99.8088C155.84 99.8088 155.892 99.7153 156.051 99.7165C156.204 99.7176 156.501 99.8442 156.565 99.962ZM157.007 101.063C157.007 101.063 157.107 101.102 157.135 101.196C156.73 101.525 156.449 102.269 155.605 102.269C154.759 102.269 154.479 101.525 154.074 101.196C154.101 101.102 154.203 101.063 154.203 101.063C154.203 101.063 154.733 101.194 155.605 101.194C156.477 101.194 157.007 101.063 157.007 101.063ZM159.293 95.7401C158.9 94.3637 157.398 93.2979 155.605 93.2979C153.812 93.2979 152.31 94.3637 151.916 95.7401C151.886 95.8458 151.927 95.914 152.043 95.8591C152.366 95.707 152.732 95.6333 153.132 95.6333C153.863 95.6333 154.508 95.9163 154.888 96.4063C155.058 96.9911 155.071 97.8378 154.881 98.3201C154.58 98.2497 154.471 98.0041 154.178 98.0041C153.883 98.0041 153.656 98.2221 153.157 98.2221C152.658 98.2221 152.599 97.9744 152.272 97.9744C151.887 97.9744 151.815 98.3918 151.815 98.863C151.815 100.962 153.652 103.851 155.605 103.851C157.558 103.851 159.394 100.962 159.394 98.863C159.394 98.3918 159.302 97.9887 158.898 97.9336C158.698 98.0855 158.514 98.2221 158.053 98.2221C157.554 98.2221 157.417 98.0041 157.122 98.0041C156.768 98.0041 156.804 98.7904 156.381 98.8345C156.102 98.1253 156.087 97.2167 156.321 96.4063C156.702 95.9163 157.346 95.6333 158.078 95.6333C158.476 95.6333 158.847 95.707 159.166 95.8591C159.282 95.914 159.323 95.8458 159.293 95.7401Z" fill="white"/>
<mask id="mask2_12809_46379" style="mask-type:alpha" maskUnits="userSpaceOnUse" x="146" y="83" width="19" height="12">
<path d="M164.544 83.4502H146.663V94.0061H164.544V83.4502Z" fill="white"/>
</mask>
<g mask="url(#mask2_12809_46379)">
<path d="M153.602 90.8753C153.669 90.8236 155.605 89.2753 155.605 89.2753C155.605 89.2753 157.54 90.8236 157.606 90.8753C157.681 90.9337 157.644 91.0327 157.547 91.0151C157.377 90.9833 156.561 90.8389 155.605 90.8389C154.648 90.8389 153.831 90.9833 153.662 91.0151C153.565 91.0327 153.527 90.9337 153.602 90.8753ZM148.823 93.8496C148.886 93.9983 149.021 94.0467 149.168 93.9707C151.107 92.9588 153.293 92.3883 155.605 92.3883C157.916 92.3883 160.101 92.9588 162.041 93.9707C162.188 94.0467 162.322 93.9983 162.385 93.8496C162.942 92.5359 163.695 91.3125 164.544 90.1651C163.129 90.2707 161.898 90.7818 160.905 91.633C161.327 90.3742 161.864 89.2743 162.542 88.2072C160.741 88.4075 159.234 89.1014 158.134 90.284L157.273 87.9132L159.184 86.1393L156.625 85.9498L155.605 83.4502L154.584 85.9498L152.025 86.1393L153.935 87.9132L153.075 90.284C151.974 89.1014 150.468 88.4075 148.666 88.2072C149.344 89.2743 149.88 90.3742 150.304 91.633C149.309 90.7818 148.08 90.2707 146.663 90.1651C147.512 91.3125 148.266 92.5359 148.823 93.8496Z" fill="white"/>
</g>
<path d="M167.635 99.1306C170.414 98.1187 172.237 101.016 174.379 100.34C172.301 98.0217 170.612 95.3835 170.834 92.3465C170.848 92.168 170.696 92.0667 170.551 92.1735C169.492 92.9443 168.75 94.2207 168.522 95.6587C167.051 94.6654 165.33 94.5245 163.908 95.1356C165.372 96.2147 166.638 97.5692 167.635 99.1306Z" fill="white"/>
<path d="M143.573 99.1306C144.572 97.5692 145.838 96.2147 147.302 95.1356C145.881 94.5245 144.159 94.6654 142.688 95.6587C142.46 94.2207 141.718 92.9443 140.66 92.1735C140.514 92.0667 140.362 92.168 140.375 92.3465C140.599 95.3835 138.909 98.0217 136.831 100.34C138.973 101.016 140.796 98.1187 143.573 99.1306Z" fill="white"/>
<path d="M169.708 111.103C168.672 111.103 167.487 110.679 166.495 109.729C166.816 107.803 163.972 105.843 163.972 104.432C163.972 102.901 164.709 102.054 164.709 99.9888C164.709 98.456 164.001 96.7944 162.934 95.6581C162.727 95.4378 162.515 95.2583 162.272 95.0986C163.253 96.3738 164.007 97.8867 164.007 99.6386C164.007 101.583 163.146 102.61 163.146 104.404C163.146 106.198 165.643 107.752 165.643 109.601C165.643 110.33 165.422 111.04 164.693 112.436C165.814 113.614 167.275 114.255 168.217 114.255C168.523 114.255 168.687 114.158 168.796 113.905C168.891 113.687 168.98 113.467 169.065 113.245C170.079 113.286 170.545 114.256 171.106 114.644C171.361 114.318 171.462 114.177 171.709 113.74C171.093 113.394 170.559 112.349 169.394 112.284C169.513 111.897 169.618 111.504 169.708 111.103Z" fill="white"/>
<path d="M167.304 116.581C167.146 116.807 166.981 117.027 166.81 117.242C167.176 117.502 167.498 117.968 167.708 118.349C167.931 118.161 168.149 117.966 168.364 117.768C168.118 117.366 167.734 116.855 167.304 116.581Z" fill="white"/>
<path d="M168.512 114.524C168.38 114.796 168.238 115.063 168.091 115.325C168.728 115.506 169.164 116.181 169.501 116.625C169.717 116.39 169.928 116.149 170.133 115.903C169.756 115.463 169.251 114.729 168.512 114.524Z" fill="white"/>
<path d="M169.561 103.525C169.694 104.024 169.802 104.534 169.886 105.052C171.735 105.051 172.479 106.866 174.533 106.599C174.628 106.103 174.702 105.599 174.763 105.091C172.581 105.467 171.797 103.423 169.561 103.525Z" fill="white"/>
<path d="M170.069 106.757C170.083 107.039 170.092 107.323 170.092 107.609C170.092 107.769 170.087 107.926 170.083 108.084C171.686 108.064 172.208 109.62 173.735 109.548C173.886 109.119 174.019 108.681 174.142 108.239C172.52 108.405 171.947 106.711 170.069 106.757Z" fill="white"/>
<path d="M169.952 109.724C169.901 110.103 169.838 110.479 169.761 110.849C171.213 110.742 171.525 112.146 172.563 112.258C172.752 111.896 172.928 111.525 173.096 111.149C171.999 111.084 171.621 109.607 169.952 109.724Z" fill="white"/>
</g>
<rect x="175.524" y="97.7881" width="64.1994" height="57.2589" fill="#1E3932"/>
<g clip-path="url(#clip0_12809_46379)">
<path d="M230.816 133.157C229.997 132.027 228.969 131.078 227.794 130.366C228.652 128.563 229.099 126.579 229.099 124.567C229.099 117.623 223.81 111.968 217.216 111.681C216.918 109.817 216.228 108.045 215.197 106.49C214.166 104.935 212.819 103.636 211.252 102.686C209.684 101.736 207.935 101.158 206.128 100.993C204.322 100.827 202.503 101.08 200.8 101.731C200.32 101.23 199.839 100.729 199.289 100.227C195.649 97.364 190.365 97.4356 186.788 100.371L186.101 99.6548C184.316 97.7935 181.705 97.2924 179.37 98.2946C176.966 99.3684 175.524 101.659 175.524 104.303V152.486C175.527 153.624 175.962 154.715 176.734 155.519C177.507 156.324 178.553 156.778 179.645 156.781H226.558C229.099 156.781 231.297 155.278 232.259 152.772C232.727 151.593 232.846 150.296 232.602 149.046C232.357 147.796 231.759 146.65 230.885 145.757C233.427 142.034 233.427 136.808 230.816 133.157ZM226.352 124.567C226.337 126.187 225.959 127.78 225.248 129.22C224.465 128.991 223.657 128.871 222.844 128.862C222.796 126.129 221.711 123.527 219.825 121.627C218.108 119.837 215.778 118.687 213.369 118.549C213.297 117.522 213.09 116.51 212.756 115.542C214.027 114.94 215.406 114.623 216.803 114.611C222.025 114.54 226.352 119.05 226.352 124.562V124.567ZM205.059 103.807C209.73 103.807 213.645 107.315 214.469 111.896C213.396 112.102 212.355 112.463 211.378 112.97C211.035 112.54 210.765 112.111 210.348 111.681C208.508 109.744 206.025 108.616 203.41 108.532C203.347 107.02 202.998 105.536 202.385 104.165C203.26 103.931 204.16 103.811 205.064 103.807H205.059ZM229.713 151.699C229.459 152.355 229.022 152.917 228.459 153.313C227.896 153.708 227.232 153.919 226.553 153.918H179.645C179.281 153.917 178.932 153.766 178.675 153.497C178.417 153.229 178.272 152.865 178.271 152.486V104.308C178.26 103.598 178.458 102.901 178.839 102.313C179.22 101.724 179.765 101.271 180.4 101.015C180.842 100.844 181.308 100.747 181.779 100.729C182.672 100.741 183.528 101.098 184.183 101.731L229.029 147.761C229.485 148.286 229.791 148.932 229.912 149.628C230.033 150.324 229.966 151.042 229.716 151.7L229.713 151.699ZM228.888 143.752L188.712 102.518C190.004 101.587 191.537 101.088 193.107 101.087C194.711 101.079 196.276 101.606 197.572 102.59C199.77 104.309 200.938 107.101 200.594 109.893C200.562 110.115 200.583 110.342 200.655 110.554C200.727 110.766 200.847 110.957 201.006 111.109C201.281 111.395 201.693 111.538 202.174 111.538C204.505 111.253 206.845 112.041 208.493 113.757C209.251 114.551 209.839 115.504 210.217 116.552C210.596 117.6 210.758 118.719 210.691 119.837C210.686 120.036 210.72 120.234 210.791 120.419C210.861 120.603 210.968 120.771 211.103 120.911C211.382 121.185 211.75 121.338 212.134 121.341C214.263 121.197 216.392 122.056 217.972 123.631C218.795 124.48 219.416 125.518 219.785 126.661C220.155 127.805 220.263 129.023 220.101 130.217C220.069 130.44 220.09 130.667 220.162 130.879C220.233 131.092 220.354 131.282 220.513 131.434C220.788 131.721 221.269 131.864 221.681 131.864C223.013 131.674 224.37 131.868 225.605 132.423C226.839 132.978 227.905 133.874 228.687 135.014C230.404 137.442 230.542 141.022 228.893 143.747L228.888 143.752Z" fill="white" fill-opacity="0.5"/>
<line x1="182.464" y1="119.36" x2="194.892" y2="119.36" stroke="white" stroke-opacity="0.5" stroke-width="1.5" stroke-linecap="round"/>
<line x1="182.464" y1="132.115" x2="202.629" y2="132.115" stroke="white" stroke-opacity="0.5" stroke-width="1.5" stroke-linecap="round"/>
<line x1="182.464" y1="143.276" x2="218.105" y2="143.276" stroke="white" stroke-opacity="0.5" stroke-width="1.5" stroke-linecap="round"/>
</g>
<defs>
<clipPath id="clip0_12809_46379">
<path d="M175.524 97.7881H224.783C229.201 97.7881 232.783 101.37 232.783 105.788V156.782H175.524V97.7881Z" fill="white"/>
</clipPath>
</defs>
</svg>
